# xmcd CD database file
# Copyright (C) 1993-1998 Ti Kan
# 
# Track frame offsets:
#     150
#     27535
#     61272
#     89834
#     112333
#     133404
#     154670
#     210265
# 
# Disc length: 3688 seconds
# 
# Revision: 1
# Processed by: cddbd v1.4b41PL1 Copyright (c) Steve Scherf et al.
# Submitted via: DiscPlay 4.0.4
# 
DISCID=760e6608
DTITLE=Wallace Hartley and The Titanics - Jellyfish Patrol
DYEAR=1900
DGENRE=
TTITLE0=Get Enough
TTITLE1=Flaming Grapes
TTITLE2=Reverserazzledazzle - Old No. 7
TTITLE3=Lay It Down
TTITLE4=Nothing On You
TTITLE5=Pass Me By
TTITLE6=Brand New Bike
TTITLE7=If I Stay - Get Enough
EXTD=
EXTT0=
EXTT1=
EXTT2=
EXTT3=
EXTT4=
EXTT5=
EXTT6=( longer than stairway]\n\n
EXTT7=
PLAYORDER=
